<svg preserveAspectRatio="xMidYMid meet" viewBox="0 0 145 50" xmlns="http://www.w3.org/2000/svg"><g transform="matrix(.1 0 0 -.1 0 50)"><path d="m1198 440c-15-4-41-18-57-29-46-33-113-61-148-61-18 0-55 9-83 20-73 29-205 28-263-1-69-35-125-77-143-107-25-44-83-55-277-57-93-1-173-7-178-12-16-16 0-40 34-54 57-24 278-9 339 23 39 20 107 26 128 11 11-8 20-20 19-26-3-27 3-36 34-56 30-18 48-20 140-18 66 1 106 6 104 12s-16 11-31 13c-32 4-42 23-26 52 15 27 8 35-19 20-12-6-21-8-21-6 0 3 13 12 29 21 26 13 34 13 71 0 24-8 61-15 84-15 22 0 48-5 56-10 12-8 9-10-12-10-26 0-27-2-21-32 7-40 18-48 62-48h33l-23 19c-21 17-22 23-12 40 7 11 10 28 6 38-3 10 9-3 26-29 43-63 53-70 103-66l43 3-27 14c-18 9-32 28-41 54l-13 41 64 63 64 63h62c73 0 86 7 82 43-5 51-71 96-121 83-21-6-25-11-19-29 6-20 5-20-10-8-12 10-14 17-6 25 12 12 13 26 3 25-5 0-20-4-35-9zm132-51c0-6-4-7-10-4-5 3-10 11-10 16 0 6 5 7 10 4 6-3 10-11 10-16zm-597-241c-4-7-6-24-4-36 2-21 0-23-21-17-38 12-41 21-12 44 30 23 49 28 37 9z"/><path d="m1390 361c0-6 5-13 10-16 6-3 10 1 10 9 0 9-4 16-10 16-5 0-10-4-10-9z"/></g><style>path{fill:#373737}@media (prefers-color-scheme:dark){path{fill:#fafafa}}</style></svg>
